<svg viewBox="0 0 113 11" xmlns="http://www.w3.org/2000/svg">
  <path d="M4.894.133c2.767 0 4.702.832 4.667 3.563H6.9c-.131-.748-.737-1.223-2.078-1.223-1.176 0-1.71.368-1.71.926 0 .392.273.748 1.128.89l1.057.19c1.959.333 4.548.475 4.548 3.1 0 2.101-1.663 3.206-4.976 3.194-3.313-.012-4.928-1.08-4.868-3.586h2.683c.048.76.689 1.235 2.185 1.247 1.354.012 2.019-.404 2.019-.974 0-.44-.309-.772-1.354-.938L4.276 6.32C2.388 6 .251 5.68.251 3.256.25 1.31 1.842.133 4.894.133zm75.645 0c3.372 0 5.592 2.15 5.592 5.32 0 3.17-2.22 5.32-5.592 5.32-3.373 0-5.593-2.15-5.593-5.32 0-3.17 2.22-5.32 5.593-5.32zM17.682.466l3.74 9.974h-3.087l-.499-1.436h-4.488l-.5 1.436H9.774L13.502.466h4.18zm7.705 0l3.752 5.83h.274V.466h2.909v9.975h-3.36L25.125 4.61h-.261v5.83h-2.91V.467h3.432zm12.693 0c3.99 0 5.438 2.125 5.438 4.987 0 2.85-1.448 4.988-5.438 4.988H33.21V.466h4.869zm12.823 0l3.74 9.974h-3.087l-.499-1.436H46.57l-.499 1.436h-3.075L46.723.466h4.18zm7.254 0v7.48h5.463v2.495h-8.443V.466h2.98zm12.23 0c2.957 0 3.8 1.282 3.8 2.612 0 1.105-.57 1.627-1.318 2.007v.178c.997.475 1.59 1.2 1.59 2.363 0 1.615-1.127 2.814-4.19 2.814h-5.784V.466h5.902zm18.106 0l2.316 3.99h.261l2.304-3.99h3.147l-4.097 6.852v3.122h-2.98V7.306L85.358.466h3.134zm17.55 0v2.41l-5.427 4.845v.226h5.355v2.493h-9.143V8.03l5.355-4.845V2.96H96.96V.466h9.084zM80.539 2.71c-1.46 0-2.637 1.033-2.637 2.743s1.176 2.743 2.637 2.743c1.46 0 2.636-1.033 2.636-2.743S81.999 2.71 80.539 2.71zM70.185 6.19h-2.72v1.959h2.72c.879 0 1.259-.5 1.259-1.01 0-.522-.38-.95-1.259-.95zM38.068 2.97h-1.864v4.964h1.864c1.508 0 2.458-.784 2.458-2.482 0-1.71-.95-2.482-2.458-2.482zm-22.215.297h-.522l-1.212 3.515h2.945l-1.21-3.515zm33.222 0h-.523L47.34 6.783h2.945l-1.211-3.515zM110.61.618c1.372 0 2.325.986 2.325 2.323 0 1.33-.953 2.308-2.325 2.308-1.364 0-2.315-.978-2.315-2.308 0-1.337.951-2.323 2.315-2.323zm.001.381c-1.139 0-1.934.824-1.934 1.941 0 1.11.795 1.927 1.934 1.927 1.146 0 1.941-.816 1.941-1.927 0-1.117-.795-1.94-1.941-1.94zM70.09 2.758h-2.624V4.49h2.624c.879 0 1.235-.368 1.235-.855 0-.486-.356-.878-1.235-.878zm40.651-.914c.616 0 .953.294.953.774 0 .344-.172.559-.409.673l.466.795h-.509l-.4-.695h-.681v.695h-.473V1.844zm.014.409h-.594v.738h.594c.273 0 .437-.13.437-.373 0-.25-.164-.365-.437-.365z" fill="#262626" fill-rule="evenodd"/>
</svg>
